<?xml version="1.0" standalone="no"?>
<!DOCTYPE svg PUBLIC "-//W3C//DTD SVG 20010904//EN">
<svg version="1.0" xmlns="http://www.w3.org/2000/svg"
 width="500.000000pt" height="500.000000pt" viewBox="0 0 500.000000 500.000000"
 preserveAspectRatio="xMidYMid meet">

<g transform="translate(0.000000,500.000000) scale(0.100000,-0.100000)"
fill="#ffffff" stroke="none">
<path d="M1695 4253 c-60 -13 -93 -30 -132 -66 -71 -65 -77 -84 -83 -242 l-5
-140 -69 -5 c-59 -4 -72 -9 -88 -31 -16 -22 -17 -29 -7 -52 14 -30 28 -36 109
-39 l55 -3 0 -210 0 -210 -74 -5 c-73 -5 -75 -6 -87 -37 -12 -28 -11 -34 7
-57 18 -24 27 -26 90 -26 l69 0 0 -210 0 -210 -69 0 c-63 0 -72 -3 -90 -25
-16 -22 -18 -31 -9 -56 13 -37 41 -49 114 -49 l54 0 0 -188 c0 -214 8 -253 67
-322 73 -85 10 -80 951 -80 925 0 871 -4 945 68 72 70 77 101 77 447 l0 305
40 0 c27 0 47 7 60 20 19 19 20 33 20 248 0 260 -1 262 -78 262 l-42 0 0 353
c0 409 -1 417 -79 491 -86 79 -48 76 -940 75 -432 -1 -795 -3 -806 -6z m1647
-163 c47 -36 48 -53 46 -410 l-3 -335 -100 -5 c-109 -6 -145 -19 -195 -71 -49
-52 -70 -110 -70 -194 0 -93 24 -149 86 -203 54 -48 100 -62 203 -62 l81 0 0
-297 c0 -281 -1 -300 -20 -331 -39 -64 -15 -62 -807 -60 l-718 3 -3 993 -2
992 739 0 c719 0 739 -1 763 -20z"/>
<path d="M2165 3768 c-11 -6 -23 -16 -27 -22 -14 -21 -8 -63 12 -81 19 -17 47
-19 429 -19 389 -1 410 0 430 18 27 24 27 68 0 92 -20 18 -43 19 -423 21 -279
1 -407 -1 -421 -9z"/>
<path d="M2162 3498 c-51 -25 -34 -105 26 -120 18 -5 205 -7 416 -6 361 3 385
4 405 22 21 19 28 61 13 82 -21 32 -53 34 -444 33 -263 0 -401 -4 -416 -11z"/>
<path d="M1072 1602 c-9 -7 -12 -82 -10 -343 l3 -334 175 1 c165 1 178 2 230
26 74 34 126 81 158 142 20 41 27 69 30 142 6 129 -13 191 -81 258 -63 63
-119 90 -214 105 -83 13 -272 15 -291 3z m305 -148 c58 -19 109 -65 124 -112
6 -18 9 -64 7 -102 -3 -54 -9 -74 -30 -103 -42 -54 -99 -77 -191 -77 l-77 0 0
205 0 205 60 0 c32 0 81 -7 107 -16z"/>
<path d="M1811 1596 c-8 -9 -11 -108 -9 -342 l3 -329 65 -3 c52 -2 67 0 77 14
10 14 13 94 13 336 l0 318 -26 10 c-37 15 -110 12 -123 -4z"/>
<path d="M2326 1588 c-8 -13 -35 -77 -61 -143 -26 -66 -52 -131 -57 -145 -6
-14 -14 -34 -18 -45 -4 -11 -12 -31 -18 -45 -54 -131 -102 -265 -98 -276 4
-10 26 -14 75 -14 l70 0 22 60 22 60 143 0 143 0 22 -60 22 -60 73 0 c70 0 74
1 74 23 0 12 -56 164 -125 337 -137 348 -123 327 -222 329 -44 1 -55 -3 -67
-21z m128 -282 c20 -54 36 -105 36 -112 0 -11 -19 -14 -86 -14 -97 0 -92 -8
-54 95 10 28 26 72 36 98 9 26 21 44 25 40 4 -4 24 -52 43 -107z"/>
<path d="M2852 1602 c-9 -7 -12 -82 -10 -343 l3 -334 70 0 70 0 3 113 3 112
38 0 c38 0 38 -1 101 -107 35 -60 68 -111 74 -115 13 -9 156 -11 156 -2 0 3
-16 33 -36 67 -20 34 -45 77 -56 95 -10 18 -25 43 -33 56 -14 22 -13 24 29 54
104 75 117 242 28 335 -36 38 -74 54 -152 67 -77 12 -270 13 -288 2z m326
-156 c49 -43 30 -125 -33 -152 -19 -8 -62 -14 -95 -14 l-60 0 0 96 0 96 84 -3
c64 -3 89 -8 104 -23z"/>
<path d="M3401 1601 c-11 -7 -12 -13 -4 -23 9 -12 31 -51 136 -248 22 -41 49
-91 61 -110 18 -30 21 -51 22 -155 0 -66 1 -126 2 -132 3 -21 138 -18 146 3 3
9 6 69 6 135 l0 119 106 195 c58 108 103 203 100 211 -6 15 -107 21 -141 8 -9
-4 -43 -61 -76 -127 -32 -67 -62 -124 -67 -129 -4 -4 -36 50 -70 121 -47 96
-68 130 -85 135 -34 9 -120 7 -136 -3z"/>
</g>
</svg>
